<?xml version="1.0" encoding="UTF-8" standalone="no"?>
<svg
   height="80"
   width="130"
   xml:space="preserve"
   version="1.1"
   id="svg52"
   sodipodi:docname="imageviewer.svg"
   inkscape:version="1.3.2 (091e20e, 2023-11-25, custom)"
   xmlns:inkscape="http://www.inkscape.org/namespaces/inkscape"
   xmlns:sodipodi="http://sodipodi.sourceforge.net/DTD/sodipodi-0.dtd"
   xmlns="http://www.w3.org/2000/svg"
   xmlns:svg="http://www.w3.org/2000/svg"><sodipodi:namedview
   id="namedview52"
   pagecolor="#ffffff"
   bordercolor="#000000"
   borderopacity="0.25"
   inkscape:showpageshadow="2"
   inkscape:pageopacity="0.0"
   inkscape:pagecheckerboard="0"
   inkscape:deskcolor="#d1d1d1"
   inkscape:zoom="3.9897395"
   inkscape:cx="205.27656"
   inkscape:cy="40.478833"
   inkscape:window-width="2560"
   inkscape:window-height="1369"
   inkscape:window-x="-8"
   inkscape:window-y="-8"
   inkscape:window-maximized="1"
   inkscape:current-layer="svg52" />
    <defs
   id="defs1">
        
    
        
        
        
        
        
        
        
        
        
        
        
        
        
        
        
        
        
        
        
        
        
        
        
        
        
        
        
        
        
        
        
        
        
        
        
        
        
        
        
        
        
        
        
        
        
        
        
        
        
        
        
    <clipPath
   clipPathUnits="userSpaceOnUse"
   id="clipPath53"><g
     id="g54"><path
       d="M 0,0 H 471.71 V 80.74 H 0 Z"
       id="path53"
       style="stroke-width:1.25" /></g></clipPath><clipPath
   clipPathUnits="userSpaceOnUse"
   id="clipPath54"><g
     id="g55"><path
       d="M 0,0 H 471.71 V 80.74 H 0 Z"
       id="path54"
       style="stroke-width:1.25" /></g></clipPath><clipPath
   clipPathUnits="userSpaceOnUse"
   id="clipPath55"><g
     id="g56"><path
       d="M 0,0 H 471.71 V 80.74 H 0 Z"
       id="path55"
       style="stroke-width:1.25" /></g></clipPath><clipPath
   clipPathUnits="userSpaceOnUse"
   id="clipPath56"><g
     id="g57"><path
       d="M 0,0 H 471.71 V 80.74 H 0 Z"
       id="path56"
       style="stroke-width:1.25" /></g></clipPath><clipPath
   clipPathUnits="userSpaceOnUse"
   id="clipPath57"><g
     id="g58"><path
       d="M 0,0 H 471.71 V 80.74 H 0 Z"
       id="path57"
       style="stroke-width:1.25" /></g></clipPath><clipPath
   clipPathUnits="userSpaceOnUse"
   id="clipPath58"><g
     id="g59"><path
       d="M 0,0 H 471.71 V 80.74 H 0 Z"
       id="path58"
       style="stroke-width:1.25" /></g></clipPath><clipPath
   clipPathUnits="userSpaceOnUse"
   id="clipPath59"><g
     id="g60"><path
       d="M 0,0 H 471.71 V 80.74 H 0 Z"
       id="path59"
       style="stroke-width:1.25" /></g></clipPath><clipPath
   clipPathUnits="userSpaceOnUse"
   id="clipPath60"><g
     id="g61"><path
       d="M 0,0 H 471.71 V 80.74 H 0 Z"
       id="path60"
       style="stroke-width:1.25" /></g></clipPath><clipPath
   clipPathUnits="userSpaceOnUse"
   id="clipPath61"><g
     id="g62"><path
       d="M 0,0 H 471.71 V 80.74 H 0 Z"
       id="path61"
       style="stroke-width:1.25" /></g></clipPath><clipPath
   clipPathUnits="userSpaceOnUse"
   id="clipPath62"><g
     id="g63"><path
       d="M 0,0 H 471.71 V 80.74 H 0 Z"
       id="path62"
       style="stroke-width:1.25" /></g></clipPath><clipPath
   clipPathUnits="userSpaceOnUse"
   id="clipPath63"><g
     id="g64"><path
       d="M 0,0 H 471.71 V 80.74 H 0 Z"
       id="path63"
       style="stroke-width:1.25" /></g></clipPath><clipPath
   clipPathUnits="userSpaceOnUse"
   id="clipPath64"><g
     id="g65"><path
       d="M 0,0 H 471.71 V 80.74 H 0 Z"
       id="path64"
       style="stroke-width:1.25" /></g></clipPath><clipPath
   clipPathUnits="userSpaceOnUse"
   id="clipPath65"><g
     id="g66"><path
       d="M 0,0 H 471.71 V 80.74 H 0 Z"
       id="path65"
       style="stroke-width:1.25" /></g></clipPath><clipPath
   clipPathUnits="userSpaceOnUse"
   id="clipPath66"><g
     id="g67"><path
       d="M 0,0 H 471.71 V 80.74 H 0 Z"
       id="path66"
       style="stroke-width:1.25" /></g></clipPath><clipPath
   clipPathUnits="userSpaceOnUse"
   id="clipPath67"><g
     id="g68"><path
       d="M 0,0 H 471.71 V 80.74 H 0 Z"
       id="path67"
       style="stroke-width:1.25" /></g></clipPath><clipPath
   clipPathUnits="userSpaceOnUse"
   id="clipPath68"><g
     id="g69"><path
       d="M 0,0 H 471.71 V 80.74 H 0 Z"
       id="path68"
       style="stroke-width:1.25" /></g></clipPath><clipPath
   clipPathUnits="userSpaceOnUse"
   id="clipPath69"><g
     id="g70"><path
       d="M 0,0 H 471.71 V 80.74 H 0 Z"
       id="path69"
       style="stroke-width:1.25" /></g></clipPath><clipPath
   clipPathUnits="userSpaceOnUse"
   id="clipPath70"><g
     id="g71"><path
       d="M 0,0 H 471.71 V 80.74 H 0 Z"
       id="path70"
       style="stroke-width:1.25" /></g></clipPath><clipPath
   clipPathUnits="userSpaceOnUse"
   id="clipPath71"><g
     id="g72"><path
       d="M 0,0 H 471.71 V 80.74 H 0 Z"
       id="path71"
       style="stroke-width:1.25" /></g></clipPath><clipPath
   clipPathUnits="userSpaceOnUse"
   id="clipPath72"><g
     id="g73"><path
       d="M 0,0 H 471.71 V 80.74 H 0 Z"
       id="path72"
       style="stroke-width:1.25" /></g></clipPath><clipPath
   clipPathUnits="userSpaceOnUse"
   id="clipPath73"><g
     id="g74"><path
       d="M 0,0 H 471.71 V 80.74 H 0 Z"
       id="path73"
       style="stroke-width:1.25" /></g></clipPath><clipPath
   clipPathUnits="userSpaceOnUse"
   id="clipPath74"><g
     id="g75"><path
       d="M 0,0 H 471.71 V 80.74 H 0 Z"
       id="path74"
       style="stroke-width:1.25" /></g></clipPath><clipPath
   clipPathUnits="userSpaceOnUse"
   id="clipPath75"><g
     id="g76"><path
       d="M 0,0 H 471.71 V 80.74 H 0 Z"
       id="path75"
       style="stroke-width:1.25" /></g></clipPath><clipPath
   clipPathUnits="userSpaceOnUse"
   id="clipPath76"><g
     id="g77"><path
       d="M 0,0 H 471.71 V 80.74 H 0 Z"
       id="path76"
       style="stroke-width:1.25" /></g></clipPath><clipPath
   clipPathUnits="userSpaceOnUse"
   id="clipPath77"><g
     id="g78"><path
       d="M 0,0 H 471.71 V 80.74 H 0 Z"
       id="path77"
       style="stroke-width:1.25" /></g></clipPath><clipPath
   clipPathUnits="userSpaceOnUse"
   id="clipPath78"><g
     id="g79"><path
       d="M 0,0 H 471.71 V 80.74 H 0 Z"
       id="path78"
       style="stroke-width:1.25" /></g></clipPath><clipPath
   clipPathUnits="userSpaceOnUse"
   id="clipPath79"><g
     id="g80"><path
       d="M 0,0 H 471.71 V 80.74 H 0 Z"
       id="path79"
       style="stroke-width:1.25" /></g></clipPath><clipPath
   clipPathUnits="userSpaceOnUse"
   id="clipPath80"><g
     id="g81"><path
       d="M 0,0 H 471.71 V 80.74 H 0 Z"
       id="path80"
       style="stroke-width:1.25" /></g></clipPath><clipPath
   clipPathUnits="userSpaceOnUse"
   id="clipPath81"><g
     id="g82"><path
       d="M 0,0 H 471.71 V 80.74 H 0 Z"
       id="path81"
       style="stroke-width:1.25" /></g></clipPath><clipPath
   clipPathUnits="userSpaceOnUse"
   id="clipPath82"><g
     id="g83"><path
       d="M 0,0 H 471.71 V 80.74 H 0 Z"
       id="path82"
       style="stroke-width:1.25" /></g></clipPath><clipPath
   clipPathUnits="userSpaceOnUse"
   id="clipPath83"><g
     id="g84"><path
       d="M 0,0 H 471.71 V 80.74 H 0 Z"
       id="path83"
       style="stroke-width:1.25" /></g></clipPath><clipPath
   clipPathUnits="userSpaceOnUse"
   id="clipPath84"><g
     id="g85"><path
       d="M 0,0 H 471.71 V 80.74 H 0 Z"
       id="path84"
       style="stroke-width:1.25" /></g></clipPath><clipPath
   clipPathUnits="userSpaceOnUse"
   id="clipPath85"><g
     id="g86"><path
       d="M 0,0 H 471.71 V 80.74 H 0 Z"
       id="path85"
       style="stroke-width:1.25" /></g></clipPath><clipPath
   clipPathUnits="userSpaceOnUse"
   id="clipPath86"><g
     id="g87"><path
       d="M 0,0 H 471.71 V 80.74 H 0 Z"
       id="path86"
       style="stroke-width:1.25" /></g></clipPath><clipPath
   clipPathUnits="userSpaceOnUse"
   id="clipPath87"><g
     id="g88"><path
       d="M 0,0 H 471.71 V 80.74 H 0 Z"
       id="path87"
       style="stroke-width:1.25" /></g></clipPath><clipPath
   clipPathUnits="userSpaceOnUse"
   id="clipPath88"><g
     id="g89"><path
       d="M 0,0 H 471.71 V 80.74 H 0 Z"
       id="path88"
       style="stroke-width:1.25" /></g></clipPath><clipPath
   clipPathUnits="userSpaceOnUse"
   id="clipPath89"><g
     id="g90"><path
       d="M 0,0 H 471.71 V 80.74 H 0 Z"
       id="path89"
       style="stroke-width:1.25" /></g></clipPath><clipPath
   clipPathUnits="userSpaceOnUse"
   id="clipPath90"><g
     id="g91"><path
       d="M 0,0 H 471.71 V 80.74 H 0 Z"
       id="path90"
       style="stroke-width:1.25" /></g></clipPath><clipPath
   clipPathUnits="userSpaceOnUse"
   id="clipPath91"><g
     id="g92"><path
       d="M 0,0 H 471.71 V 80.74 H 0 Z"
       id="path91"
       style="stroke-width:1.25" /></g></clipPath><clipPath
   clipPathUnits="userSpaceOnUse"
   id="clipPath92"><g
     id="g93"><path
       d="M 0,0 H 471.71 V 80.74 H 0 Z"
       id="path92"
       style="stroke-width:1.25" /></g></clipPath><clipPath
   clipPathUnits="userSpaceOnUse"
   id="clipPath93"><g
     id="g94"><path
       d="M 0,0 H 471.71 V 80.74 H 0 Z"
       id="path93"
       style="stroke-width:1.25" /></g></clipPath><clipPath
   clipPathUnits="userSpaceOnUse"
   id="clipPath94"><g
     id="g95"><path
       d="M 0,0 H 471.71 V 80.74 H 0 Z"
       id="path94"
       style="stroke-width:1.25" /></g></clipPath><clipPath
   clipPathUnits="userSpaceOnUse"
   id="clipPath95"><g
     id="g96"><path
       d="M 0,0 H 471.71 V 80.74 H 0 Z"
       id="path95"
       style="stroke-width:1.25" /></g></clipPath><clipPath
   clipPathUnits="userSpaceOnUse"
   id="clipPath96"><g
     id="g97"><path
       d="M 0,0 H 471.71 V 80.74 H 0 Z"
       id="path96"
       style="stroke-width:1.25" /></g></clipPath><clipPath
   clipPathUnits="userSpaceOnUse"
   id="clipPath97"><g
     id="g98"><path
       d="M 0,0 H 471.71 V 80.74 H 0 Z"
       id="path97"
       style="stroke-width:1.25" /></g></clipPath><clipPath
   clipPathUnits="userSpaceOnUse"
   id="clipPath98"><g
     id="g99"><path
       d="M 0,0 H 471.71 V 80.74 H 0 Z"
       id="path98"
       style="stroke-width:1.25" /></g></clipPath><clipPath
   clipPathUnits="userSpaceOnUse"
   id="clipPath99"><g
     id="g100"><path
       d="M 0,0 H 471.71 V 80.74 H 0 Z"
       id="path99"
       style="stroke-width:1.25" /></g></clipPath><clipPath
   clipPathUnits="userSpaceOnUse"
   id="clipPath100"><g
     id="g101"><path
       d="M 0,0 H 471.71 V 80.74 H 0 Z"
       id="path100"
       style="stroke-width:1.25" /></g></clipPath><clipPath
   clipPathUnits="userSpaceOnUse"
   id="clipPath101"><g
     id="g102"><path
       d="M 0,0 H 471.71 V 80.74 H 0 Z"
       id="path101"
       style="stroke-width:1.25" /></g></clipPath><clipPath
   clipPathUnits="userSpaceOnUse"
   id="clipPath102"><g
     id="g103"><path
       d="M 0,0 H 471.71 V 80.74 H 0 Z"
       id="path102"
       style="stroke-width:1.25" /></g></clipPath><clipPath
   clipPathUnits="userSpaceOnUse"
   id="clipPath103"><g
     id="g104"><path
       d="M 0,0 H 471.71 V 80.74 H 0 Z"
       id="path103"
       style="stroke-width:1.25" /></g></clipPath></defs>
    <g
   id="g105"
   transform="scale(1.0794613)"><path
     style="fill:#2b2321;fill-opacity:1;fill-rule:nonzero;stroke:none;stroke-width:1.25"
     d="M 7.3,64.84 7.30125,25.32375 C 7.92125,24.695 8.7275,24.64875 9.53,24.6475 a 6034,6034 0 0 1 32.95625,0.005 4.68,4.68 0 0 1 1.375,0.185 C 45.3925,25.6925 44.16,26.43125 43.65,26.985 40.8925,29.9775 38.87625,33.36875 37.75625,37.28875 35.0625,46.71875 36.865,55.18 43.21375,62.6625 43.6,63.1175 44.055,63.51625 44.35,64.04875 c 0.3175,0.57375 0.245,1.01125 -0.43,1.2475 -0.775,0.255 -1.575,0.23 -2.36875,0.23125 -10.4125,0.0075 -20.82375,0.01 -31.235,-0.0037 C 9.27,65.5225 8.1675,65.67 7.3,64.84"
     id="path2"
     clip-path="url(#clipPath103)" /><path
     style="fill:#2b2321;fill-opacity:1;fill-rule:nonzero;stroke:none;stroke-width:1.25"
     d="m 111.6375,25.325 v 39.51125 c -0.56,0.57375 -1.28625,0.66625 -2.02625,0.66875 -8.77625,0.02625 -17.55375,0.06125 -26.33,-0.0175 a 3.69625,3.69625 0 0 1 -0.97875,-0.155 c -1.28625,-0.52375 -0.605,-1.2575 -0.1075,-1.8275 1.04375,-1.195 2.0925,-2.37875 2.98125,-3.7 2.0625,-3.065 3.3225,-6.43875 4.00125,-10.0575 0.19125,-1.02375 0.19375,-2.12 0.87375,-3.00625 0.51,-0.36625 1.1125,-0.3725 1.7025,-0.4 0.85,-0.04125 1.375,-0.3725 1.34875,-1.315 C 93.08,44.1875 92.6,43.88125 91.83875,43.83 91.25,43.79125 90.6475,43.79875 90.115,43.47 89.40875,42.7475 89.42125,41.77125 89.26375,40.8825 88.335,35.60625 86.1525,30.96375 82.51375,27 c -0.4975,-0.54 -1.7475,-1.24125 -0.26625,-2.14375 0.78125,-0.24375 1.58375,-0.2175 2.38125,-0.21875 7.99375,-0.0075 15.98625,-0.01125 23.98,0.0038 1.04875,0.0025 2.1575,-0.1525 3.02875,0.68375"
     id="path3"
     clip-path="url(#clipPath102)" /><path
     style="fill:#b7aba9;fill-opacity:1;fill-rule:nonzero;stroke:none;stroke-width:1.25"
     d="M 111.6375,25.325 81.745,25.29 c -0.61125,0.29875 -1.0225,-0.1225 -1.41625,-0.4475 -3.61625,-2.98625 -7.7175,-4.935 -12.31,-5.895 -0.455,-0.095 -1.91125,0.05625 -0.76375,-1.215 2.84,-0.55875 5.71,-0.17625 8.56375,-0.2525 2.775,-0.075 2.8325,-0.07875 2.8425,-2.76625 0.0063,-1.665 -0.01875,-3.33125 0.0025,-4.99625 0.01625,-1.23125 -0.4575,-1.835 -1.75625,-1.83375 -6.795,0.00875 -13.59,-0.0025 -20.385,0.0075 -1.09125,0.00125 -1.7875,0.39 -1.8775,1.57 -0.09625,1.265 -0.83375,1.9025 -2.0625,2.01625 -0.9425,0.0875 -1.4325,0.61125 -1.51875,1.53875 -0.11625,1.2425 -0.795,1.905 -2.0375,2.06 -0.76375,0.095 -1.4725,0.34375 -1.40625,1.3325 0.07125,1.05875 0.91875,1.015 1.62875,1.03375 2.26375,0.06 4.53,0.0088 6.795,0.02875 0.92875,0.0075 1.86875,-0.0825 2.7725,0.2275 1.2975,1.08875 -0.1175,1.1125 -0.585,1.2625 -1.57125,0.50125 -3.2075,0.76375 -4.755,1.38625 -2.53625,1.01875 -4.89625,2.30375 -7.01,4.055 -0.5675,0.47125 -1.12,1.19625 -2.0625,0.885 L 7.30125,25.32375 7.2325,21.72125 C 6.4525,20.49375 6.47,19.25125 7.15625,17.995 8.1575,17.27 9.32125,17.46125 10.43375,17.45875 19.07625,17.44 27.71875,17.415 36.36,17.4775 c 1.785,0.01375 2.8,-0.5075 2.83625,-2.3825 0.0575,-0.21875 0.15625,-0.42375 0.28375,-0.61 0.1875,-0.18125 0.41625,-0.39 0.6675,-0.37 2.20125,0.17625 2.75125,-1.1725 2.8075,-2.99375 a 1.0825,1.0825 0 0 1 0.38375,-0.46 c 0.29,-0.15875 0.61,-0.2825 0.9325,-0.25625 1.635,0.13625 2.23125,-0.69 2.1325,-2.21625 C 46.38625,7.93 46.4925,7.6775 46.595,7.43375 46.6925,7.25 46.8325,7.11 47.0125,7.00875 c 2.36125,0.18125 3.01,-1.435 3.44125,-3.28 L 54.025,3.64625 c 1.2275,-0.7775 2.455,-0.78375 3.68125,0.005 l 10.72,-0.00625 c 1.22875,-0.7775 2.4575,-0.78125 3.685,0.00375 L 90.0325,3.6475 a 34.95,34.95 0 0 1 14.4875,0 c 0.53,0.0075 1.07,0.08125 1.58875,0.01125 1.54,-0.21125 2.24,0.3525 1.97625,1.9525 -0.215,1.305 0.36875,1.87 1.66375,1.6575 1.62125,-0.265 2.06,0.4675 1.9575,1.99375 -0.115,1.71625 -0.009,3.44625 0,5.17 0.94,2.43 0.94,4.85875 0,7.2875 z"
     id="path4"
     clip-path="url(#clipPath101)" /><path
     style="fill:#fdfdf9;fill-opacity:1;fill-rule:nonzero;stroke:none;stroke-width:1.25"
     d="m 66.84375,18.14125 c 5.6125,1.0375 10.6025,3.3725 14.9,7.14875 3.70875,3.9725 6.585,8.41625 7.715,13.82125 0.28375,1.35875 0.43375,2.74625 0.64625,4.12 0.77875,1.23375 0.77375,2.46875 0.0037,3.70375 -0.65375,6.68 -3.07875,12.54125 -7.9575,17.27625 -0.18,0.17375 -0.27375,0.43625 -0.4075,0.65875 -1.245,2.09 -3.35,3.1725 -5.31375,4.35875 -2.88375,1.74375 -6.1075,2.52 -9.45,2.81625 -1.4175,0.665 -2.7125,0.7125 -4.20125,-0.1075 -1.04245,-0.57375 -2.3787,0.44125 -3.6137,0.11125 -4.8925,-0.265 -9.12125,-2.205 -12.9525,-5.13875 -0.735,-0.5625 -1.5625,-1.04875 -1.82125,-2.04 -3.4475,-3.67375 -6.27,-7.76125 -7.45375,-12.71375 -2.34625,-9.81125 -0.23,-18.53375 6.75875,-25.9525 0.26375,-0.27875 0.47125,-0.61 0.70625,-0.91625 4.30625,-3.75375 9.3,-6.07375 14.8925,-7.14875 2.51625,-1.10125 5.0325,-1.105 7.54875,0.0025"
     id="path5"
     clip-path="url(#clipPath100)" /><path
     style="fill:#b8aaa9;fill-opacity:1;fill-rule:nonzero;stroke:none;stroke-width:1.25"
     d="m 44.39125,64.87 c 4.27125,3.7375 9.2375,6.04625 14.775,7.17875 -15.5225,0.01125 -31.0425,0.0063 -46.56375,0.0675 -1.43,0.005 -1.90125,-0.445 -1.76125,-1.8175 C 10.935,69.3825 11.05125,68.25125 9.5425,68.5025 7.46375,68.84875 6.98375,67.825 7.25,66.035 7.30875,65.6425 7.285,65.23875 7.29875,64.83875 L 44.39125,64.87"
     id="path6"
     clip-path="url(#clipPath99)" /><path
     style="fill:#b6aba9;fill-opacity:1;fill-rule:nonzero;stroke:none;stroke-width:1.25"
     d="m 28.90625,7.2475 c 0.5975,0.0075 1.2025,-0.04375 1.79,0.035 1.39,0.18375 1.9925,-0.35875 1.7625,-1.76 -0.24875,-1.51125 0.41,-1.92 1.88375,-1.88125 4.1775,0.11125 8.35875,0.07125 12.54,0.09125 0.8125,1.18625 0.7625,2.36875 -0.01875,3.54625 L 46.87,7.2725 C 46.665,7.44 46.45875,7.66375 46.19625,7.665 c -1.6975,0.00875 -2.5325,0.84125 -2.54,2.54 -0.0012,0.2625 -0.22625,0.46875 -0.3925,0.67375 l 0.005,-0.005 C 43.12,10.99625 42.965,11.19 42.79375,11.19125 40.92125,11.205 39.995,12.13125 39.98,14.00375 39.97875,14.17625 39.78625,14.33 39.6625,14.48 l 0.0063,-0.0062 c -0.6475,0.58625 -1.4525,0.63 -2.25625,0.63125 A 4820.075,4820.075 0 0 1 9.21125,15.0975 4.4725,4.4725 0 0 1 7.82875,14.9075 1.4475,1.4475 0 0 1 7.19,14.4525 C 7.2125,13.98875 7.3125,13.51375 7.245,13.06375 6.98625,11.35625 7.5675,10.5575 9.3875,10.85875 10.29,11.0075 11.06125,10.76 10.84,9.62 10.40125,7.35875 11.63125,7.03875 13.42375,7.26625 13.75,7.3075 14.0875,7.25625 14.41875,7.2475 a 35.0125,35.0125 0 0 1 14.4875,0"
     id="path7"
     clip-path="url(#clipPath98)" /><path
     style="fill:#b8aaaa;fill-opacity:1;fill-rule:nonzero;stroke:none;stroke-width:1.25"
     d="m 66.98125,72.045 c 1.51125,-0.41875 3.025,-0.83125 4.53375,-1.2575 3.91375,-1.10125 7.09875,-3.46375 10.23,-5.9175 l 29.8925,-0.03375 c 0.0125,0.59875 -0.0337,1.20625 0.0525,1.795 0.22375,1.51625 -0.4075,2.1 -1.88625,1.85625 -1.45125,-0.23875 -1.9,0.4575 -1.73,1.80375 0.14125,1.1275 -0.0475,1.83625 -1.5375,1.82875 -13.185,-0.06875 -26.37,-0.06 -39.555,-0.075"
     id="path8"
     clip-path="url(#clipPath97)" /><path
     style="fill:#c4c3c3;fill-opacity:1;fill-rule:nonzero;stroke:none;stroke-width:1.25"
     d="m 104.51875,3.64625 h -14.4875 c 0.1175,-3.57375 0.1175,-3.57375 3.77,-3.57375 2.77875,0 5.565,0.12625 8.3325,-0.0425 1.94875,-0.1175 2.6625,0.53875 2.355,2.42875 -0.0625,0.38375 0.0162,0.79125 0.03,1.1875"
     id="path9"
     clip-path="url(#clipPath96)" /><path
     style="fill:#c4c3c3;fill-opacity:1;fill-rule:nonzero;stroke:none;stroke-width:1.25"
     d="M 28.90625,7.2475 H 14.41875 C 14.535,3.68625 14.535,3.68625 18.1025,3.6675 20.48,2.71125 22.8575,2.70875 25.235,3.67 c 3.5575,0.01125 3.5575,0.01125 3.67125,3.5775"
     id="path10"
     clip-path="url(#clipPath95)" /><path
     style="fill:#c4c4c3;fill-opacity:1;fill-rule:nonzero;stroke:none;stroke-width:1.25"
     d="M 7.27875,18.06125 7.23125,21.72 c -0.53,-0.01375 -1.06875,-0.095 -1.58875,-0.0275 -1.54125,0.2 -2.25,-0.365 -1.9875,-1.97 C 3.8725,18.39375 3.24375,17.89 1.97,18.07875 0.54375,18.2925 0.00875,17.81 0,16.2575 -0.01,14.64125 0.64875,14.38 2.01875,14.45125 3.7375,14.54125 5.46625,14.46 7.19,14.4525 l 0.15,0.04125 c 0.70875,1.2025 0.71625,2.39125 -0.06125,3.5675"
     id="path11"
     clip-path="url(#clipPath94)" /><path
     style="fill:#c3c3c3;fill-opacity:1;fill-rule:nonzero;stroke:none;stroke-width:1.25"
     d="m 111.705,21.72 v -7.2875 c 1.86,0.01375 3.7225,0.11 5.57625,0.01625 1.41125,-0.0725 1.665,0.5775 1.62375,1.78625 -0.0362,1.08375 -0.005,2.07125 -1.52625,1.84 -1.6125,-0.24625 -2.38125,0.335 -2.105,2.04125 0.1975,1.2275 -0.37375,1.68875 -1.57875,1.575 -0.65625,-0.0625 -1.32625,0.015 -1.99,0.02875"
     id="path12"
     clip-path="url(#clipPath93)" /><path
     style="fill:#1a1316;fill-opacity:1;fill-rule:nonzero;stroke:none;stroke-width:1.25"
     d="m 25.235,3.66875 -7.13125,-0.0025 c -0.125,-3.59375 -0.125,-3.59375 3.355,-3.5925 h 0.2 c 3.65875,0 3.65875,0 3.57625,3.595"
     id="path13"
     clip-path="url(#clipPath92)" /><path
     style="fill:#c4c3c3;fill-opacity:1;fill-rule:nonzero;stroke:none;stroke-width:1.25"
     d="M 57.705,3.65 54.02375,3.645 c 0.015,-0.45875 0.07875,-0.92375 0.035,-1.37625 C 53.91875,0.84375 54.09625,-0.005 55.9675,0 57.89375,0.00625 57.705,1.06625 57.67375,2.2725 57.6625,2.73125 57.69375,3.19 57.705,3.65"
     id="path14"
     clip-path="url(#clipPath91)" /><path
     style="fill:#c4c3c3;fill-opacity:1;fill-rule:nonzero;stroke:none;stroke-width:1.25"
     d="m 72.11125,3.64875 -3.685,-0.0025 C 68.44,3.18625 68.50375,2.7225 68.46,2.26875 68.32125,0.845 68.495,-0.005 70.36875,0.00125 72.295,0.0075 72.11,1.0625 72.07875,2.27 c -0.0125,0.45875 0.02,0.91875 0.0325,1.37875"
     id="path15"
     clip-path="url(#clipPath90)" /><path
     style="fill:#a09795;fill-opacity:1;fill-rule:nonzero;stroke:none;stroke-width:1.25"
     d="M 46.8625,7.2775 46.88125,3.73125 50.4525,3.7275 c 0.04,3.54125 0.04,3.54125 -3.59,3.55"
     id="path16"
     clip-path="url(#clipPath89)" /><path
     style="fill:#c6c2bf;fill-opacity:1;fill-rule:nonzero;stroke:none;stroke-width:1.25"
     d="M 90.11,46.93625 90.1063,43.2325 c 0.4575,0.0175 0.915,0.0475 1.3725,0.05 2.1125,0.01375 2.19625,0.29625 2.19875,2.9775 0,0.66 -0.565,0.60625 -1.0175,0.61875 -0.85,0.0225 -1.7,0.03875 -2.55,0.0575"
     id="path17"
     clip-path="url(#clipPath88)" /><path
     style="fill:#0e090c;fill-opacity:1;fill-rule:nonzero;stroke:none;stroke-width:1.25"
     d="M 66.84375,18.14125 59.295,18.13875 C 55.6375,18.1175 51.9775,18.00125 48.325,18.12 c -1.60625,0.0525 -1.4825,-0.7825 -1.46875,-1.8275 0.0125,-1.01625 -0.17875,-2.105 1.4525,-1.82125 1.6425,0.28375 2.55,-0.21375 2.1625,-2.08125 -0.25375,-1.2275 0.2825,-1.72625 1.51125,-1.51625 C 53.53125,11.14 54.41,10.7025 54.07375,8.92125 53.83625,7.66375 54.315,7.22875 55.66375,7.2425 62.9825,7.31 70.30375,7.3 77.6225,7.25 c 1.25,-0.00875 1.74375,0.265 1.68125,1.63 a 97.365,97.365 0 0 0 -0.0125,7.78375 c 0.04125,1.18625 -0.3825,1.4475 -1.47625,1.4375 -3.65625,-0.0375 -7.31375,0.01875 -10.97125,0.04"
     id="path18"
     clip-path="url(#clipPath87)" /><path
     style="fill:#0e090d;fill-opacity:1;fill-rule:nonzero;stroke:none;stroke-width:1.25"
     d="m 93.77375,7.27375 c 3.06625,-0.00125 6.13375,0.0325 9.2,-0.02 C 104.0025,7.235 104.53,7.37125 104.505,8.62 c -0.08,3.9325 -0.0537,7.86625 -0.0112,11.79875 0.01,0.9275 -0.2325,1.28375 -1.22,1.2775 -6.3988,-0.03625 -12.7988,-0.03875 -19.1988,0 -0.99,0.005 -1.22875,-0.34625 -1.21875,-1.27125 0.04125,-3.9325 0.06625,-7.8675 -0.0125,-11.79875 -0.025,-1.24375 0.49625,-1.38875 1.53,-1.37 3.1325,0.05375 6.26625,0.01875 9.4,0.0175"
     id="path19"
     clip-path="url(#clipPath86)" /><path
     style="fill:#a19795;fill-opacity:1;fill-rule:nonzero;stroke:none;stroke-width:1.25"
     d="m 7.27875,18.06125 0.06125,-3.5675 32.3275,-0.02 c -0.0062,3.6025 -0.0062,3.60375 -3.54375,3.6025 l -28.845,-0.015"
     id="path20"
     clip-path="url(#clipPath85)" /><path
     style="fill:#a19795;fill-opacity:1;fill-rule:nonzero;stroke:none;stroke-width:1.25"
     d="m 39.6625,14.47875 c 0.0075,-3.5975 0.0075,-3.5975 3.60625,-3.60625 -0.0075,3.59875 -0.0075,3.59875 -3.60625,3.60625"
     id="path21"
     clip-path="url(#clipPath84)" /><path
     style="fill:#a29795;fill-opacity:1;fill-rule:nonzero;stroke:none;stroke-width:1.25"
     d="M 43.2625,10.8775 C 43.2675,6.955 42.95875,7.28 46.86875,7.27125 46.8625,10.87 46.8625,10.87 43.2625,10.8775"
     id="path22"
     clip-path="url(#clipPath83)" /><path
     style="fill:#1b1318;fill-opacity:1;fill-rule:nonzero;stroke:none;stroke-width:1.25"
     d="m 52.9125,66.375 c -5.0875,-2.80625 -9.22125,-6.5725 -11.395,-12.0675 -3.53,-8.92875 -2.445,-17.34375 3.91375,-24.595 6.6475,-7.58 15.21625,-9.92 24.78,-6.895 9.42875,2.98 14.91375,9.82625 16.1425,19.6075 2.05125,16.3275 -13.255,29.5 -29.16125,25.33625 -0.63625,-0.1675 -1.28625,-0.28375 -1.93,-0.42375 -0.90375,-0.025 -1.79375,-0.08625 -2.35,-0.9625"
     id="path23"
     clip-path="url(#clipPath82)" /><path
     style="fill:#fefefe;fill-opacity:1;fill-rule:nonzero;stroke:none;stroke-width:1.25"
     d="m 52.9125,66.375 2.35,0.9625 c -2.0275,0.64375 -2.38,0.5 -2.35,-0.9625"
     id="path24"
     clip-path="url(#clipPath81)" /><path
     style="fill:#fefdfb;fill-opacity:1;fill-rule:nonzero;stroke:none;stroke-width:1.25"
     d="m 89.87875,18.0775 c -3.405,-0.0012 -3.405,-0.0012 -3.405,-3.3975 0,-3.8025 0,-3.8025 3.8,-3.80375 3.40125,-0.0025 3.40125,-0.0025 3.40125,3.4025 -0.0012,3.8 -0.0012,3.8 -3.79625,3.79875"
     id="path25"
     clip-path="url(#clipPath80)" /><path
     style="fill:#3c3041;fill-opacity:1;fill-rule:nonzero;stroke:none;stroke-width:1.25"
     d="M 63.55625,61.28375 C 54.24375,61.56625 46.86375,54.33 46.84125,45.045 46.82125,36.12375 54.1325,28.74125 63.2125,28.8525 72.24,28.96375 79.195,35.99 79.295,45.115 c 0.09625,8.7025 -7.30625,16.39 -15.73875,16.16875"
     id="path26"
     clip-path="url(#clipPath79)" /><path
     style="fill:#1a1418;fill-opacity:1;fill-rule:nonzero;stroke:none;stroke-width:1.25"
     d="M 63.2075,57.68125 C 55.97375,58.1075 50.5125,51.1875 50.38375,45.37 50.22,37.91875 57.10375,32.30125 62.8175,32.43625 c 7.24875,0.1725 12.65375,5.545 12.9125,12.6825 0.215,5.96 -5.725,12.98625 -12.5225,12.5625"
     id="path27"
     clip-path="url(#clipPath78)" /><path
     style="fill:#fdfbfc;fill-opacity:1;fill-rule:nonzero;stroke:none;stroke-width:1.25"
     d="m 65.3,5.94125 h -2.81625 c -0.34375,0 -0.625,-0.28125 -0.625,-0.625 V 2.61 c 0,-0.34375 0.28125,-0.625 0.625,-0.625 H 65.3 c 0.34375,0 0.625,0.28125 0.625,0.625 v 2.70625 c 0,0.34375 -0.28125,0.625 -0.625,0.625"
     id="path45"
     clip-path="url(#clipPath60)" /><path
     style="fill:#e5e2e1;fill-opacity:1;fill-rule:nonzero;stroke:none;stroke-width:1.25"
     d="M 28.3725,27.77375 H 13.175 c -0.6875,0 -1.25,-0.5625 -1.25,-1.25 v -4.845 c 0,-0.6875 0.5625,-1.25 1.25,-1.25 h 15.1975 c 0.6875,0 1.25,0.5625 1.25,1.25 v 4.845 c 0,0.6875 -0.5625,1.25 -1.25,1.25"
     id="path46"
     clip-path="url(#clipPath59)" /><path
     style="fill:#d4102e;fill-opacity:1;fill-rule:nonzero;stroke:none;stroke-width:1.25"
     d="m 18.7575,23.8975 h -3.46875 v -3.46875 h 3.46875 z m 7.545,0 h -3.46875 v -3.46875 h 3.46875 z"
     id="path47"
     clip-path="url(#clipPath58)" /></g>
            
        
</svg>
